<?xml version="1.0" standalone="no"?>
<!DOCTYPE svg PUBLIC "-//W3C//DTD SVG 20010904//EN"
 "http://www.w3.org/TR/2001/REC-SVG-20010904/DTD/svg10.dtd">
<svg version="1.0" xmlns="http://www.w3.org/2000/svg"
 width="374.000000pt" height="666.000000pt" viewBox="0 0 374.000000 666.000000"
 preserveAspectRatio="xMidYMid meet">

<g transform="translate(0.000000,666.000000) scale(0.100000,-0.100000)"
fill="#000000" stroke="none">
<path d="M1575 5363 c-31 -32 -58 -68 -61 -80 -7 -25 -16 -28 -45 -13 -12 7
-19 7 -19 1 0 -6 -17 -4 -41 4 -62 22 -111 19 -137 -8 -12 -13 -22 -29 -22
-35 0 -7 -5 -12 -11 -12 -20 0 4 -140 34 -196 19 -37 109 -126 169 -166 40
-27 41 -28 13 -22 -16 4 -46 13 -67 20 -20 7 -39 10 -41 7 -3 -3 -15 15 -27
39 -32 63 -49 78 -86 78 -25 0 -38 -7 -54 -30 -19 -27 -25 -29 -70 -26 -35 3
-50 0 -54 -10 -5 -14 0 -20 54 -63 40 -31 16 -36 -52 -8 -35 14 -81 32 -103
40 -31 11 -41 21 -46 43 -9 43 -37 92 -59 104 -15 8 -27 7 -47 -4 -33 -17 -76
-55 -90 -80 -8 -14 -14 -16 -29 -8 -96 49 -144 54 -168 17 -22 -33 -20 -87 5
-145 20 -47 20 -51 5 -98 -29 -87 -33 -89 -102 -53 -69 36 -74 37 -102 12 -47
-40 -14 -165 66 -253 22 -24 41 -52 43 -63 4 -30 -12 -185 -20 -185 -3 1 -15
15 -26 33 -28 44 -63 46 -119 8 -24 -17 -46 -38 -50 -47 -8 -20 -53 -14 -111
16 -41 21 -62 24 -89 14 -13 -5 -16 -23 -16 -98 l0 -91 53 -70 c54 -72 180
-184 208 -185 32 0 64 46 98 140 19 52 36 97 38 100 13 15 21 -41 27 -178 9
-229 76 -570 167 -862 29 -91 54 -177 56 -191 3 -15 -11 -78 -31 -140 -19 -63
-61 -211 -92 -329 -31 -118 -76 -289 -100 -380 -25 -91 -65 -255 -90 -365 -56
-244 -77 -313 -116 -382 -22 -39 -33 -76 -40 -136 -6 -52 -17 -92 -30 -109
-10 -15 -37 -65 -59 -110 -21 -46 -50 -101 -64 -123 l-24 -40 -1 -322 0 -323
1870 0 1870 0 0 1465 0 1464 -70 98 c-39 54 -79 105 -88 113 -10 8 -19 20 -21
25 -2 6 -12 28 -24 50 -11 22 -35 83 -53 135 -69 202 -213 576 -264 685 -10
22 -44 110 -76 195 -76 208 -122 305 -198 419 -55 82 -156 198 -156 179 0 -3
20 -48 43 -99 24 -52 54 -123 67 -159 12 -36 26 -69 31 -74 5 -6 9 -14 9 -20
0 -5 -20 19 -45 55 -25 35 -62 82 -83 104 -21 22 -48 57 -62 77 -23 34 -26 36
-42 21 -21 -19 -41 -8 -33 18 5 15 1 19 -15 19 -12 0 -19 4 -15 9 3 5 0 13 -6
17 -6 3 -15 1 -20 -7 -6 -10 -11 -6 -18 14 -6 15 -18 27 -27 27 -9 0 -27 9
-41 19 -13 11 -32 17 -41 14 -14 -5 -15 -3 -4 8 16 18 15 29 -3 29 -8 0 -15
-7 -15 -15 0 -14 -12 -14 -83 0 -9 2 -21 -4 -26 -12 -6 -12 -10 -10 -15 11 -5
21 -11 26 -26 21 -13 -4 -22 -1 -26 9 -8 21 -54 21 -54 0 0 -8 -4 -12 -10 -9
-5 3 -10 24 -10 45 0 67 -20 139 -43 155 -12 8 -37 15 -57 15 -40 0 -128 -38
-160 -70 l-21 -21 -42 35 c-24 19 -64 41 -90 48 l-47 12 0 89 c0 145 -29 207
-95 207 -29 0 -44 -9 -90 -57z m-179 -671 c-7 -7 -46 33 -46 47 0 8 10 3 25
-15 13 -15 23 -30 21 -32z m29 -22 c3 -5 1 -10 -4 -10 -6 0 -11 5 -11 10 0 6
2 10 4 10 3 0 8 -4 11 -10z m-221 -467 c4 -4 46 -8 94 -9 121 -4 145 -10 194
-50 24 -19 51 -42 61 -50 10 -8 34 -23 54 -34 20 -11 48 -32 63 -48 14 -16 33
-32 41 -35 10 -4 9 -6 -5 -6 -17 -1 -16 -4 8 -26 29 -27 30 -32 16 -69 -7 -18
-17 -26 -34 -26 -17 0 -33 -11 -48 -30 -12 -16 -28 -30 -36 -30 -8 0 -34 -20
-58 -45 -23 -25 -51 -45 -62 -45 -34 0 -39 -38 -8 -67 25 -23 66 -25 66 -3 0
13 161 90 187 90 13 0 23 4 23 9 0 5 10 9 23 8 12 0 43 8 70 19 37 14 52 16
65 7 10 -6 31 -8 47 -6 19 4 30 1 37 -11 5 -9 16 -16 23 -16 8 0 15 -7 15 -15
0 -8 9 -19 20 -25 11 -6 20 -18 20 -27 0 -9 9 -26 19 -37 10 -12 22 -35 26
-53 6 -29 4 -32 -27 -41 -18 -6 -55 -11 -82 -11 -27 0 -51 -3 -54 -6 -3 -3 17
-5 43 -5 74 0 42 -17 -45 -23 -71 -6 -74 -6 -45 9 30 15 30 15 -20 9 -27 -4
-74 -17 -104 -31 -29 -13 -60 -24 -67 -24 -8 0 -14 -4 -14 -10 0 -5 -4 -9 -9
-7 -16 4 -67 -34 -77 -57 -5 -12 -14 -20 -19 -19 -6 1 -10 -12 -11 -27 -1 -39
24 -48 33 -12 7 27 7 27 13 -8 3 -19 11 -34 17 -33 6 1 50 3 98 4 47 1 88 6
91 11 3 4 22 7 42 6 42 -1 115 28 165 66 19 14 39 26 44 26 6 0 14 7 17 16 4
12 14 15 34 11 52 -10 102 -32 102 -44 0 -7 12 -13 26 -13 17 0 47 -17 83 -46
78 -65 223 -215 241 -250 8 -16 28 -48 43 -72 70 -105 150 -394 148 -536 -1
-99 -7 -135 -39 -216 -49 -125 -105 -205 -228 -325 -81 -79 -77 -76 -163 -134
-35 -24 -105 -83 -156 -131 -102 -98 -156 -130 -260 -154 -39 -9 -83 -20 -100
-25 -42 -11 -218 -2 -232 13 -3 3 -15 6 -25 6 -19 0 -46 13 -81 40 -53 40 -94
97 -163 230 -42 80 -84 161 -94 180 -11 19 -22 47 -25 63 -3 15 -11 27 -19 27
-7 0 -19 7 -26 15 -7 8 -18 15 -25 15 -29 0 -195 181 -195 214 0 16 -2 18 -9
7 -7 -11 -10 -10 -15 6 -3 11 -27 42 -52 69 -103 110 -165 260 -178 432 -6 77
-4 102 10 143 10 28 26 51 36 55 10 3 16 9 13 14 -8 12 44 28 115 35 76 7 128
22 153 43 25 22 21 28 -20 29 -21 1 -31 -2 -23 -7 9 -6 9 -9 0 -15 -7 -4 -16
-2 -20 6 -7 10 -11 10 -24 0 -15 -12 -92 -18 -103 -7 -11 11 18 34 50 39 68
11 130 27 141 36 6 5 29 11 51 13 34 2 39 6 37 23 -13 73 -186 130 -328 108
-85 -12 -93 -5 -87 76 2 31 4 65 4 77 -1 24 49 45 94 39 46 -7 133 -29 140
-37 10 -10 98 3 106 15 4 5 -8 25 -27 44 -19 18 -34 37 -34 42 0 25 -123 81
-177 81 -14 0 -26 7 -29 18 -3 9 -10 27 -16 39 -15 32 10 151 35 164 10 6 16
17 13 25 -3 7 3 18 14 24 14 7 20 21 20 45 0 32 16 59 68 110 12 12 22 27 22
34 0 6 16 17 35 25 19 8 50 26 68 40 18 14 44 29 57 35 29 12 94 14 104 4z
m876 -780 c0 -5 -5 -15 -10 -23 -8 -12 -10 -11 -10 8 0 12 5 22 10 22 6 0 10
-3 10 -7z m-231 -69 c12 -20 20 -38 18 -40 -5 -6 -97 12 -105 21 -7 7 43 55
58 55 4 0 18 -16 29 -36z m-989 -63 c-18 -10 -80 -22 -80 -16 0 5 59 23 80 24
13 0 13 -1 0 -8z m22 -104 c15 -23 22 -44 17 -45 -22 -8 -55 9 -71 38 -16 28
-16 30 0 40 24 14 24 14 54 -33z"/>
<path d="M1080 3354 c0 -9 9 -18 20 -21 14 -4 20 -14 20 -34 0 -21 5 -29 18
-29 10 0 21 2 24 5 10 10 -16 54 -39 66 -13 7 -23 16 -23 21 0 4 -4 8 -10 8
-5 0 -10 -7 -10 -16z"/>
<path d="M1717 3246 c-8 -21 13 -35 53 -35 19 -1 63 -3 98 -7 41 -4 62 -2 62
5 0 6 7 8 15 5 11 -5 13 -2 9 10 -7 18 -20 21 -29 7 -8 -13 -44 -9 -39 4 3 6
-4 11 -15 11 -11 0 -17 -4 -15 -8 8 -13 -26 -22 -39 -9 -8 8 -6 11 9 12 22 1
-50 18 -82 18 -12 1 -24 -5 -27 -13z"/>
<path d="M910 2560 c0 -5 7 -10 16 -10 8 0 12 5 9 10 -3 6 -10 10 -16 10 -5 0
-9 -4 -9 -10z"/>
<path d="M1805 2528 c-35 -35 -75 -50 -109 -43 -26 6 -157 24 -191 26 -5 1
-43 -2 -84 -5 -43 -3 -91 -1 -115 5 -60 16 -105 21 -86 9 13 -8 13 -10 -1 -10
-15 0 -49 -30 -49 -42 0 -3 11 -9 24 -12 14 -3 28 -15 31 -26 3 -11 13 -20 21
-20 7 0 19 -9 26 -20 7 -11 20 -20 29 -20 9 0 22 -7 29 -15 8 -10 16 -12 20
-6 4 7 18 7 42 1 26 -8 38 -17 42 -35 4 -14 13 -25 21 -25 7 0 16 -9 20 -19 5
-16 9 -17 31 -7 22 10 24 15 19 47 -5 31 -2 41 20 62 15 14 43 27 61 30 54 9
177 74 203 108 27 35 25 45 -4 17z"/>
<path d="M1173 2257 c-26 -11 -43 -88 -24 -111 6 -7 8 -16 4 -19 -3 -4 2 -9
11 -13 10 -4 22 -18 27 -32 8 -21 14 -24 44 -19 19 3 35 2 35 -4 0 -5 4 -9 10
-9 5 0 49 -39 97 -86 103 -102 143 -123 234 -124 121 0 174 23 82 35 -27 3
-68 11 -93 16 -25 6 -56 12 -70 13 -14 2 -28 4 -32 5 -4 0 -5 8 -2 16 4 10 14
13 33 9 19 -4 22 -3 12 4 -11 8 -6 13 25 21 48 14 66 28 82 65 10 22 15 26 26
16 11 -9 16 -7 20 7 10 27 84 69 156 88 52 14 136 23 228 25 14 0 15 9 4 28
-12 18 -90 22 -134 6 -52 -18 -115 -16 -228 8 -141 30 -153 31 -194 14 -24
-10 -44 -13 -54 -7 -10 4 -38 13 -63 19 -43 11 -50 10 -101 -18 l-56 -30 -5
22 c-4 12 -2 25 3 28 6 4 -5 13 -22 22 -24 11 -39 12 -55 5z"/>
</g>
</svg>
